External Loads File
version=1
nRows=62
nColumns=13
Range=5.000000e-03-10 seconds
endheader
time 	forceRightX 	forceRightY 	forceRightZ 	pointRightX 	pointRightY 	pointRightZ 	forceLeftX 	forceLeftY 	forceLeftZ 	pointLeftX 	pointLeftY 	pointLeftZ 		
2.505000 -75.371599 -95.049121 -0.000000 0.207620 0.472951 -0.147477 184.763822 1345.417774 -0.000000 0.356469 0.179170 -0.378233
2.510000 -70.009112 -90.743368 -0.000000 0.214441 0.478101 -0.148020 146.727426 1303.099572 -0.000000 0.349971 0.174780 -0.378098
2.515000 -74.113208 -78.994507 -0.000000 0.221033 0.483014 -0.148360 244.958082 1231.362271 -0.000000 0.343296 0.170768 -0.377944
2.520000 -70.104782 -74.734006 -0.000000 0.228017 0.487298 -0.148678 212.023334 1172.079262 -0.000000 0.336433 0.167150 -0.377837
2.525000 -74.155862 -62.423122 -0.000000 0.235108 0.491112 -0.148839 296.769091 1078.562331 -0.000000 0.329461 0.164018 -0.377765
2.530000 -71.790333 -56.756680 -0.000000 0.242474 0.494582 -0.149106 259.831169 1005.303300 -0.000000 0.322269 0.161354 -0.377748
2.535000 -70.870502 -49.019487 -0.000000 0.250033 0.497682 -0.149348 228.273643 922.442997 -0.000000 0.314926 0.159106 -0.377917
2.540000 -71.177381 -39.188442 -0.000000 0.257930 0.500201 -0.149660 195.772466 832.557302 -0.000000 0.307453 0.157175 -0.377899
2.545000 -76.871257 -11.818299 -0.000000 0.265903 0.502163 -0.149831 307.989526 690.440244 -0.000000 0.299829 0.155804 -0.377980
2.550000 -77.360981 3.882236 -0.000000 0.274020 0.503897 -0.150036 264.651558 601.171235 -0.000000 0.292033 0.154820 -0.377986
2.555000 -76.108593 30.905662 -0.000000 0.282039 0.505185 -0.150271 281.360619 486.652762 -0.000000 0.283992 0.154350 -0.378015
2.560000 -76.806620 51.917843 -0.000000 0.290223 0.505927 -0.150474 240.143234 410.052238 -0.000000 0.275729 0.154327 -0.378026
2.565000 -69.931376 83.173758 -0.000000 0.298308 0.506240 -0.150765 242.688836 315.492769 -0.000000 0.267222 0.154794 -0.377955
2.570000 -70.288245 107.984781 -0.000000 0.306128 0.506143 -0.150967 209.724943 256.610834 -0.000000 0.258575 0.155767 -0.377880
2.575000 -71.756728 134.132291 -0.000000 0.313738 0.505314 -0.151383 184.217168 204.274198 -0.000000 0.249939 0.157128 -0.377649
2.580000 -74.572964 161.307675 -0.000000 0.321049 0.504318 -0.151669 164.853968 158.078330 -0.000000 0.241265 0.159162 -0.377448
2.585000 -37.436734 201.778733 -0.000000 0.328033 0.502049 -0.151748 171.904844 83.511260 -0.000000 0.232672 0.161533 -0.377196
2.590000 -38.170621 231.451973 -0.000000 0.334702 0.499486 -0.151594 154.569759 52.675154 -0.000000 0.224252 0.164533 -0.376850
2.595000 -11.889523 265.666040 -0.000000 0.341048 0.496259 -0.151411 144.147470 11.630455 -0.000000 0.216042 0.167898 -0.376628
2.600000 -15.065571 299.184969 -0.000000 0.347156 0.492405 -0.151169 133.560703 -6.130142 -0.000000 0.208019 0.171808 -0.376411
2.605000 -21.355298 335.106063 -0.000000 0.352821 0.488128 -0.150940 126.990795 -18.875186 -0.000000 0.200251 0.176025 -0.376349
2.610000 -32.704192 373.386181 -0.000000 0.357941 0.483317 -0.150834 123.654125 -26.763745 -0.000000 0.192790 0.180938 -0.376175
2.615000 -47.748070 413.929499 -0.000000 0.363397 0.477984 -0.150404 122.562802 -31.406403 -0.000000 0.185578 0.186171 -0.375804
2.620000 -71.339243 455.606738 -0.000000 0.368623 0.472130 -0.150441 123.215879 -32.565950 -0.000000 0.178661 0.191790 -0.375583
2.625000 -99.347780 498.039630 -0.000000 0.373651 0.465887 -0.150565 124.555375 -32.575200 -0.000000 0.172106 0.197761 -0.375306
2.630000 -134.588868 539.598218 -0.000000 0.378608 0.459128 -0.150873 126.176665 -31.581651 -0.000000 0.165913 0.203935 -0.375146
2.635000 -177.798621 578.479444 -0.000000 0.383237 0.452201 -0.151048 127.619100 -30.154113 -0.000000 0.160007 0.210461 -0.375050
2.640000 -225.749832 613.940533 -0.000000 0.387910 0.444799 -0.151007 128.316176 -29.495838 -0.000000 0.154449 0.217275 -0.375018
2.645000 -280.191303 643.764408 -0.000000 0.392158 0.437009 -0.151338 128.061071 -29.460738 -0.000000 0.149227 0.224390 -0.375054
2.650000 -339.551832 666.876156 -0.000000 0.396173 0.429101 -0.151977 126.545967 -30.425153 -0.000000 0.144250 0.231828 -0.375149
2.655000 -401.687789 682.937072 -0.000000 0.400000 0.420773 -0.152387 123.514704 -32.647118 -0.000000 0.139673 0.239532 -0.375396
2.660000 -466.920932 690.600621 -0.000000 0.403693 0.412063 -0.152410 118.968808 -35.660891 -0.000000 0.135487 0.247556 -0.375595
2.665000 -531.043457 691.775642 -0.000000 0.407109 0.403028 -0.152527 112.902909 -39.480940 -0.000000 0.131757 0.255572 -0.375849
2.670000 -597.748858 682.929546 -0.000000 0.410277 0.393725 -0.152524 106.023923 -42.508396 -0.000000 0.128412 0.265729 -0.375966
2.675000 96.229660 935.015634 -0.000000 0.413135 0.384337 -0.152380 28.350176 -104.569548 -0.000000 0.125419 0.273182 -0.376000
2.680000 39.721457 968.325336 -0.000000 0.415648 0.374685 -0.151989 24.440296 -99.188747 -0.000000 0.123079 0.282102 -0.376177
2.685000 85.331067 991.384523 -0.000000 0.417633 0.364896 -0.151263 13.531687 -94.809650 -0.000000 0.121139 0.291261 -0.376288
2.690000 24.643883 1017.354929 -0.000000 0.419140 0.354969 -0.150487 16.509159 -87.840899 -0.000000 0.119728 0.300550 -0.376483
2.695000 87.338621 1033.370828 -0.000000 0.420838 0.345046 -0.151107 12.407354 -82.483985 -0.000000 0.118764 0.309884 -0.376603
2.700000 29.737282 1053.173849 -0.000000 0.421804 0.335233 -0.151277 20.931412 -75.705690 -0.000000 0.118417 0.319315 -0.376739
2.705000 79.213531 1064.932468 -0.000000 0.422364 0.325386 -0.150992 23.814827 -71.658675 -0.000000 0.118513 0.328792 -0.376902
2.710000 19.471444 1080.525290 -0.000000 0.422381 0.315541 -0.150919 35.220469 -65.976224 -0.000000 0.119147 0.338270 -0.377130
2.715000 73.299309 1090.472380 -0.000000 0.422123 0.305572 -0.150521 39.877658 -65.109572 -0.000000 0.120293 0.348401 -0.377288
2.720000 15.323567 1105.274541 -0.000000 0.421156 0.295780 -0.150250 50.588558 -61.498015 -0.000000 0.122054 0.357688 -0.377580
2.725000 95.571262 1114.688029 -0.000000 0.420124 0.285948 -0.149636 52.086163 -65.607006 -0.000000 0.124356 0.367033 -0.377809
2.730000 36.259470 1133.212782 -0.000000 0.418312 0.276308 -0.149800 59.821971 -64.532098 -0.000000 0.127196 0.376227 -0.378050
2.735000 97.134430 1146.874748 -0.000000 0.416171 0.266603 -0.149463 58.481612 -70.779945 -0.000000 0.130551 0.385312 -0.378355
2.740000 37.299893 1170.055819 -0.000000 0.413490 0.257140 -0.149176 62.319994 -71.692472 -0.000000 0.134429 0.394413 -0.378492
2.745000 115.223399 1187.162091 -0.000000 0.410297 0.247852 -0.148852 55.374161 -80.288655 -0.000000 0.138838 0.403322 -0.378719
2.750000 54.812702 1215.570444 -0.000000 0.406320 0.238641 -0.148156 55.616871 -82.652266 -0.000000 0.143206 0.411882 -0.378339
2.755000 124.690558 1235.799838 -0.000000 0.402148 0.229795 -0.147776 45.080977 -90.985907 -0.000000 0.148756 0.420359 -0.378642
2.760000 65.010817 1265.842600 -0.000000 0.397553 0.221099 -0.147481 42.389644 -94.568766 -0.000000 0.154718 0.428512 -0.378847
2.765000 4.240704 1291.836923 -0.000000 0.392451 0.212694 -0.147170 38.769325 -98.967481 -0.000000 0.161167 0.436366 -0.378967
2.770000 -58.066562 1312.323729 -0.000000 0.386917 0.204718 -0.146855 34.577406 -104.253744 -0.000000 0.167900 0.443858 -0.379010
2.775000 175.261205 1319.643213 -0.000000 0.380852 0.197082 -0.146471 4.958705 -114.347544 -0.000000 0.175732 0.451095 -0.379140
2.780000 116.402145 1338.125027 -0.000000 0.374443 0.189872 -0.146035 -0.902046 -120.131743 -0.000000 0.183266 0.457957 -0.378857
2.785000 230.694534 1328.240423 -0.000000 0.367621 0.183132 -0.144959 -22.821234 -124.641149 -0.000000 0.191163 0.464386 -0.378740
2.790000 174.178545 1333.738940 -0.000000 0.360475 0.177127 -0.144623 -29.008266 -130.781767 -0.000000 0.199660 0.470508 -0.379007
2.795000 119.380874 1327.958544 -0.000000 0.353006 0.171332 -0.144614 -34.786637 -137.328424 -0.000000 0.208014 0.476233 -0.379042
2.800000 64.891097 1310.896838 -0.000000 0.345426 0.166532 -0.144475 -39.750929 -144.190836 -0.000000 0.216388 0.481782 -0.378782
2.805000 291.721879 1248.932078 -0.000000 0.337592 0.162095 -0.144414 -75.627537 -137.875226 -0.000000 0.225121 0.486309 -0.378888
2.810000 238.486021 1220.556947 -0.000000 0.329649 0.158448 -0.144423 -80.179467 -143.303597 -0.000000 0.233742 0.490419 -0.378916
